<svg width="22" height="23" viewBox="0 0 22 23" fill="none" xmlns="http://www.w3.org/2000/svg">
<g clip-path="url(#clip0_1531_193)">
<path d="M15.083 10.0022V5.95501H16.0132V1.76897H11.4372V0.00152588H6.1706V1.76897H1.5946V5.95501H2.52484V20.1411H10.0375C11.1342 21.2869 12.6778 22.0015 14.3853 22.0015C17.7047 22.0015 20.4053 19.301 20.4053 15.9815C20.4053 12.8981 18.0749 10.3492 15.083 10.0022ZM13.6876 10.0022C12.848 10.0996 12.0606 10.3702 11.362 10.7775V5.95501H13.6876V10.0022ZM7.56595 1.39687H10.0419V1.76897H7.56595V1.39687ZM2.98995 3.16432H14.6179V4.55967H2.98995V3.16432V3.16432ZM3.92019 5.95501H6.24577V18.7457H3.92019V5.95501ZM7.64112 18.7457V5.95501H9.9667V11.8977C8.97339 12.9716 8.36535 14.4068 8.36535 15.9815C8.36535 16.9774 8.60865 17.9174 9.0386 18.7457H7.64112ZM14.3853 20.6062C11.8353 20.6062 9.7607 18.5316 9.7607 15.9815C9.7607 13.4315 11.8353 11.3569 14.3853 11.3569C16.9353 11.3569 19.01 13.4315 19.01 15.9815C19.01 18.5315 16.9353 20.6062 14.3853 20.6062Z" fill="#EB5C5C"/>
<path d="M15.9184 13.4617L14.3852 14.9949L12.8521 13.4617L11.8655 14.4484L13.3986 15.9815L11.8655 17.5147L12.8521 18.5013L14.3852 16.9681L15.9184 18.5013L16.9051 17.5147L15.3719 15.9815L16.9051 14.4484L15.9184 13.4617Z" fill="#EB5C5C"/>
</g>
<defs>
<clipPath id="clip0_1531_193">
<rect width="22" height="22" fill="white" transform="translate(0 0.00152588)"/>
</clipPath>
</defs>
</svg>
