<svg width="20" height="21" viewBox="0 0 20 21" fill="none" xmlns="http://www.w3.org/2000/svg">
<g clip-path="url(#clip0_1532_212)">
<path d="M4.54541 10.9106V14.547C4.54541 15.049 4.95244 15.4561 5.4545 15.4561H9.09086C9.33196 15.4561 9.56317 15.3603 9.73365 15.1898L19.7336 5.18977C20.0886 4.83474 20.0886 4.25916 19.7336 3.90413L16.0972 0.267768C15.9269 0.0973441 15.6956 0.00152588 15.4545 0.00152588C15.2134 0.00152588 14.9821 0.0973441 14.8117 0.267829L4.81171 10.2678C4.64117 10.4383 4.54541 10.6695 4.54541 10.9106ZM6.36359 11.2872L15.4545 2.19625L17.8052 4.54698L8.71432 13.6379H6.36359V11.2872Z" fill="#FF8C00"/>
<path d="M19.0909 9.0925C18.5888 9.0925 18.1818 9.49953 18.1818 10.0016V18.1833H1.81818V1.81971H10C10.5021 1.81971 10.9091 1.41268 10.9091 0.910617C10.9091 0.408556 10.5021 0.00152588 10 0.00152588H0.909091C0.40703 0.00152588 0 0.408556 0 0.910617V19.0924C0 19.5945 0.40703 20.0015 0.909091 20.0015H19.0909C19.593 20.0015 20 19.5945 20 19.0924V10.0016C20 9.49947 19.593 9.0925 19.0909 9.0925Z" fill="#FF8C00"/>
</g>
<defs>
<clipPath id="clip0_1532_212">
<rect width="20" height="20" fill="white" transform="translate(0 0.00152588)"/>
</clipPath>
</defs>
</svg>
