<svg width="30" height="31" viewBox="0 0 30 31" fill="none" xmlns="http://www.w3.org/2000/svg">
<path d="M1.19363 8.96484C1.85286 8.96484 2.38727 8.43044 2.38727 7.77121C2.38727 7.11198 1.85286 6.57758 1.19363 6.57758C0.534408 6.57758 0 7.11198 0 7.77121C0 8.43044 0.534408 8.96484 1.19363 8.96484Z" fill="#FF8C00"/>
<path d="M30 6.57758H5.96814V8.96484H30V6.57758Z" fill="#FF8C00"/>
<path d="M1.19363 24.8799C1.85286 24.8799 2.38727 24.3455 2.38727 23.6863C2.38727 23.0271 1.85286 22.4927 1.19363 22.4927C0.534408 22.4927 0 23.0271 0 23.6863C0 24.3455 0.534408 24.8799 1.19363 24.8799Z" fill="#FF8C00"/>
<path d="M30 22.4927H5.96814V24.8799H30V22.4927Z" fill="#FF8C00"/>
<path d="M1.19363 16.9224C1.85286 16.9224 2.38727 16.388 2.38727 15.7288C2.38727 15.0696 1.85286 14.5352 1.19363 14.5352C0.534408 14.5352 0 15.0696 0 15.7288C0 16.388 0.534408 16.9224 1.19363 16.9224Z" fill="#FF8C00"/>
<path d="M30 14.5352H5.96814V16.9224H30V14.5352Z" fill="#FF8C00"/>
</svg>
